<svg width="17" height="15" viewBox="0 0 17 15" fill="none" xmlns="http://www.w3.org/2000/svg">
<path d="M16.9396 0.518659L14.2604 14.0265C14.2604 14.0265 13.8858 14.9633 12.8553 14.5137L6.67276 9.77366L4.42464 8.6871L0.640185 7.41303C0.640185 7.41303 0.0594032 7.20702 0.00315318 6.75737C-0.0529796 6.30772 0.658935 6.06421 0.658935 6.06421L15.703 0.162644C15.703 0.162644 16.9396 -0.380637 16.9396 0.518659Z" fill="white"/>
<path d="M6.55686 13.9848C6.55686 13.9848 6.3764 13.9679 6.15151 13.2559C5.92675 12.544 4.78394 8.79701 4.78394 8.79701L13.8703 3.0267C13.8703 3.0267 14.395 2.70818 14.3762 3.0267C14.3762 3.0267 14.4698 3.08283 14.1888 3.3451C13.9078 3.60748 7.05081 9.77119 7.05081 9.77119" fill="#D2E5F1"/>
<path d="M9.40242 11.701L6.95695 13.9306C6.95695 13.9306 6.76582 14.0757 6.55664 13.9848L7.02492 9.84325" fill="#B5CFE4"/>
</svg>
