<svg width="34" height="40" viewBox="0 0 34 40" fill="none" xmlns="http://www.w3.org/2000/svg">
<path d="M11.6098 26.0488H4.39028C3.31711 26.0488 2.53662 26.9269 2.53662 27.9025V32.0976C2.53662 33.1708 3.41467 33.9513 4.39028 33.9513H11.6098C12.683 33.9513 13.4635 33.0732 13.4635 32.0976V27.9025C13.561 26.8293 12.683 26.0488 11.6098 26.0488ZM11.7074 32.0976H4.39028V27.9025H11.7074V32.0976Z" fill="#2B2929"/>
<path d="M32.878 20.878H26.9268L27.3171 20.4878C27.6098 20.0975 27.6098 19.5122 27.2195 19.1219C26.8293 18.8293 26.2439 18.8293 25.8537 19.2195L24.878 20.2927V16.5854C24.878 16.0975 24.4878 15.6097 23.9024 15.6097C23.4146 15.6097 22.9268 16 22.9268 16.5854V20.2927L21.9512 19.2195C21.7561 19.0244 21.561 18.9268 21.2683 18.9268C20.9756 18.9268 20.7805 19.0244 20.5854 19.1219C20.1951 19.5122 20.1951 20.0975 20.4878 20.4878L20.7805 20.878H0.97561C0.487805 20.878 0 21.2683 0 21.8536V39.0244C0 39.5122 0.390244 40 0.97561 40H32.9756C33.4634 40 33.9512 39.6097 33.9512 39.0244V21.7561C33.8537 21.2683 33.4634 20.878 32.878 20.878ZM23.122 22.7317V38.1463H16.0976V22.7317H23.122ZM24.9756 38.1463V22.7317H32V38.1463H24.9756ZM1.85366 38.1463V22.7317H14.1463V38.1463H1.85366Z" fill="#2B2929"/>
<path d="M32.8783 0H15.1222C14.6344 0 14.1466 0.390244 14.1466 0.97561V5.85366C13.9514 5.65854 13.7563 5.56098 13.4636 5.56098H10.927V0.97561C10.927 0.487805 10.5368 0 9.95143 0H6.04899C5.56119 0 5.07338 0.390244 5.07338 0.97561V5.56098H2.5368C2.14656 5.56098 1.75631 5.85366 1.65875 6.14634L0.0977748 10.7317C0.000213772 10.9268 0.000213772 11.3171 0.195336 11.5122C0.390458 11.8049 0.683141 11.9024 0.975824 11.9024H32.9758C33.4636 11.9024 33.9514 11.5122 33.9514 10.9268V0.97561C33.8539 0.390244 33.4636 0 32.8783 0ZM16.0002 10.0488V1.85366H23.0246V10.0488H16.0002ZM24.9758 10.0488V1.85366H32.0002V10.0488H24.9758ZM7.0246 6.43902V1.85366H9.07339V6.43902C9.07339 6.92683 9.46363 7.41463 10.049 7.41463H12.8783L13.8539 10.0488H2.24412L3.21973 7.41463H6.04899C6.5368 7.41463 7.0246 7.02439 7.0246 6.43902Z" fill="#2B2929"/>
<path d="M12.3904 23.2195C11.7074 23.2195 11.1221 23.8048 11.1221 24.4878C11.1221 25.1707 11.7074 25.7561 12.3904 25.7561C13.0733 25.7561 13.6587 25.1707 13.6587 24.4878C13.5611 23.8048 13.0733 23.2195 12.3904 23.2195Z" fill="#2B2929"/>
<path d="M21.4636 25.6585C22.1465 25.6585 22.7319 25.0732 22.7319 24.3902C22.7319 23.7073 22.1465 23.1219 21.4636 23.1219C20.7807 23.1219 20.1953 23.7073 20.1953 24.3902C20.1953 25.1707 20.7807 25.6585 21.4636 25.6585Z" fill="#2B2929"/>
<path d="M26.634 23.2195C25.9511 23.2195 25.3657 23.8048 25.3657 24.4878C25.3657 25.1707 25.9511 25.7561 26.634 25.7561C27.3169 25.7561 27.9023 25.1707 27.9023 24.4878C27.8047 23.8048 27.3169 23.2195 26.634 23.2195Z" fill="#2B2929"/>
<path d="M21.4636 6.92676C20.7807 6.92676 20.1953 7.51212 20.1953 8.19505C20.1953 8.87798 20.7807 9.46334 21.4636 9.46334C22.1465 9.46334 22.7319 8.87798 22.7319 8.19505C22.6343 7.51212 22.1465 6.92676 21.4636 6.92676Z" fill="#2B2929"/>
<path d="M26.634 6.92676C25.9511 6.92676 25.3657 7.51212 25.3657 8.19505C25.3657 8.87798 25.9511 9.46334 26.634 9.46334C27.3169 9.46334 27.9023 8.87798 27.9023 8.19505C27.8047 7.51212 27.3169 6.92676 26.634 6.92676Z" fill="#2B2929"/>
<path d="M9.46361 25.6585C10.1465 25.6585 10.7319 25.0732 10.7319 24.3902C10.7319 23.7073 10.1465 23.1219 9.46361 23.1219C8.78068 23.1219 8.19531 23.7073 8.19531 24.3902C8.19531 25.1707 8.78068 25.6585 9.46361 25.6585Z" fill="#2B2929"/>
<path d="M6.53685 25.6585C7.21977 25.6585 7.80514 25.0732 7.80514 24.3902C7.80514 23.7073 7.21977 23.1219 6.53685 23.1219C5.85392 23.1219 5.26855 23.7073 5.26855 24.3902C5.36612 25.1707 5.85392 25.6585 6.53685 25.6585Z" fill="#2B2929"/>
<path d="M3.70726 25.6585C4.39018 25.6585 4.97555 25.0732 4.97555 24.3902C4.97555 23.7073 4.39018 23.1219 3.70726 23.1219C3.02433 23.1219 2.43896 23.7073 2.43896 24.3902C2.43896 25.1707 3.02433 25.6585 3.70726 25.6585Z" fill="#2B2929"/>
</svg>
