<svg width="26" height="40" viewBox="0 0 26 40" fill="none" xmlns="http://www.w3.org/2000/svg">
<path d="M24.7805 0H0.878049C0.390244 0 0 0.390244 0 0.878049V34.3415C0 34.8293 0.390244 35.2195 0.878049 35.2195H2.63415L2.04878 38.8293C2.04878 39.0244 2.04878 39.3171 2.2439 39.5122C2.43902 39.7073 2.63415 39.8049 2.82927 39.9024L2.92683 40C3.41463 40 3.80488 39.7073 3.80488 39.2195L4.4878 35.3171H21.1707L21.8537 39.2195C21.9512 39.7073 22.3415 40 22.7317 40H22.9268C23.122 40 23.4146 39.8049 23.5122 39.6098C23.6098 39.4146 23.7073 39.122 23.7073 38.9268L23.122 35.3171H24.878C25.3659 35.3171 25.7561 34.9268 25.7561 34.439V0.878049C25.6585 0.390244 25.2683 0 24.7805 0ZM11.9024 1.85366V33.561H1.85366V1.85366H11.9024ZM23.8049 1.85366V33.561H13.7561V1.85366H23.8049Z" fill="#2B2929"/>
<path d="M16.3903 21.0732C16.8781 21.0732 17.2683 20.6829 17.2683 20.1951V15.3171C17.2683 14.8293 16.8781 14.439 16.3903 14.439C15.9025 14.439 15.5122 14.8293 15.5122 15.3171V20.1951C15.5122 20.5854 15.9025 21.0732 16.3903 21.0732Z" fill="#2B2929"/>
<path d="M9.26819 21.0732C9.75599 21.0732 10.1462 20.6829 10.1462 20.1951V15.3171C10.1462 14.8293 9.75599 14.439 9.26819 14.439C8.78038 14.439 8.39014 14.8293 8.39014 15.3171V20.1951C8.39014 20.5854 8.78038 21.0732 9.26819 21.0732Z" fill="#2B2929"/>
</svg>
