<svg width="31" height="40" viewBox="0 0 31 40" fill="none" xmlns="http://www.w3.org/2000/svg">
<path d="M15.317 40C16.0714 40 16.6829 39.3885 16.6829 38.6342C16.6829 37.8798 16.0714 37.2683 15.317 37.2683C14.5627 37.2683 13.9512 37.8798 13.9512 38.6342C13.9512 39.3885 14.5627 40 15.317 40Z" fill="#2B2929"/>
<path d="M24.0978 40C24.8521 40 25.4636 39.3885 25.4636 38.6342C25.4636 37.8798 24.8521 37.2683 24.0978 37.2683C23.3434 37.2683 22.7319 37.8798 22.7319 38.6342C22.7319 39.3885 23.3434 40 24.0978 40Z" fill="#2B2929"/>
<path d="M6.53675 40C7.29109 40 7.90261 39.3885 7.90261 38.6342C7.90261 37.8798 7.29109 37.2683 6.53675 37.2683C5.78241 37.2683 5.1709 37.8798 5.1709 38.6342C5.1709 39.3885 5.78241 40 6.53675 40Z" fill="#2B2929"/>
<path d="M23.8051 20.5854C24.8782 15.122 25.366 9.65854 25.366 4.19512C25.366 1.85366 23.5124 0 21.2685 0H9.56115C7.21969 0 5.26847 1.85366 5.26847 4.19512C5.26847 9.65854 5.85384 15.122 6.82945 20.5854C5.56115 21.0732 4.68311 22.3415 4.68311 23.7073V25.3659C4.68311 26.6341 5.65871 27.6098 6.92701 27.6098H14.2441V31.7073C11.1221 31.9024 8.1953 32.878 5.9514 34.439C5.75628 34.6341 5.56115 34.8293 5.56115 35.122C5.56115 35.4146 5.56115 35.7073 5.75628 35.9024C6.04896 36.3902 6.73189 36.4878 7.21969 36.1951C9.17091 34.8293 11.7075 33.9512 14.3416 33.7561V35.3171C14.3416 35.9024 14.8294 36.2927 15.3173 36.2927C15.8051 36.2927 16.2929 35.8049 16.2929 35.3171V33.7561C18.927 33.9512 21.4636 34.7317 23.4148 36.1951C23.6099 36.2927 23.8051 36.3902 24.0002 36.3902C24.2929 36.3902 24.6831 36.1951 24.8782 36C25.0733 35.8049 25.0734 35.5122 25.0734 35.2195C25.0734 34.9268 24.8782 34.7317 24.6831 34.5366C22.3416 32.8781 19.4148 31.9024 16.3904 31.8049V27.7073H23.7075C24.9758 27.7073 25.9514 26.7317 25.9514 25.4634V23.8049C25.9514 22.3415 25.0733 21.0732 23.8051 20.5854ZM8.1953 22.3415H22.5368C23.3173 22.3415 23.9026 22.9268 23.9026 23.7073V25.3659C23.9026 25.4634 23.8051 25.561 23.7075 25.561H7.02457C6.92701 25.561 6.82945 25.4634 6.82945 25.3659V23.7073C6.82945 22.9268 7.41481 22.3415 8.1953 22.3415ZM21.8538 20.2927H8.87823C7.90262 15.0244 7.31725 9.56098 7.31725 4.19512C7.31725 3.02439 8.29286 2.04878 9.46359 2.04878H21.1709C22.3416 2.04878 23.3172 3.02439 23.3172 4.19512C23.3172 9.56098 22.8294 14.9268 21.8538 20.2927Z" fill="#2B2929"/>
<path d="M5.7561 17.3659V14.7317C5.7561 13.8537 4.97561 13.0732 4.09756 13.0732H1.65854C0.780488 13.0732 0 13.8537 0 14.7317V17.3659C0 18.9268 1.26829 20.2927 2.92683 20.2927C4.4878 20.2927 5.7561 18.9268 5.7561 17.3659ZM3.70732 15.122V17.4634C3.70732 17.9512 3.31707 18.3415 2.82927 18.3415C2.34146 18.3415 1.95122 17.9512 1.95122 17.4634V15.122H3.70732Z" fill="#2B2929"/>
<path d="M28.9755 13.0732H26.5365C25.6584 13.0732 24.8779 13.8537 24.8779 14.7317V17.3659C24.8779 18.9268 26.1462 20.2927 27.8048 20.2927C29.3657 20.2927 30.7316 19.0244 30.7316 17.3659V14.7317C30.7316 13.7561 29.9511 13.0732 28.9755 13.0732ZM28.6828 15.122V17.4634C28.6828 17.9512 28.2926 18.3415 27.8048 18.3415C27.317 18.3415 26.9267 17.9512 26.9267 17.4634V15.122H28.6828Z" fill="#2B2929"/>
<path d="M15.3169 7.51221C14.7316 7.51221 14.3413 8.00001 14.3413 8.48782V17.6585C14.3413 18.2439 14.8291 18.6342 15.3169 18.6342C15.8047 18.6342 16.2925 18.1464 16.2925 17.6585V8.58538C16.3901 8.00001 15.9023 7.51221 15.3169 7.51221Z" fill="#2B2929"/>
</svg>
